<svg id="garage" xmlns="http://www.w3.org/2000/svg" width="101.993" height="62.127" viewBox="0 0 101.993 62.127">
  <g id="Group_1" data-name="Group 1">
    <path id="Path_1" data-name="Path 1" d="M99.63,0H2.364A2.376,2.376,0,0,0,0,2.387V59.741a2.376,2.376,0,0,0,2.364,2.386h8.781a2.375,2.375,0,0,0,2.364-2.386V47.73H25.1v2.386a6.7,6.7,0,0,0,5.078,6.51,2.369,2.369,0,0,0,2.3,1.844h4.9a2.367,2.367,0,0,0,2.247-1.647H62.37a2.362,2.362,0,0,0,2.245,1.647h4.9a2.368,2.368,0,0,0,2.3-1.844,6.7,6.7,0,0,0,5.077-6.51V47.73h11.6V59.741a2.375,2.375,0,0,0,2.364,2.386h8.78a2.375,2.375,0,0,0,2.364-2.386V2.387A2.373,2.373,0,0,0,99.63,0ZM72.162,50.116a1.926,1.926,0,0,1-1.913,1.933h-38.5a1.925,1.925,0,0,1-1.914-1.933V47.73h3.419a2.282,2.282,0,0,0,4.491,0h26.51a2.281,2.281,0,0,0,4.49,0h3.419v2.386Zm2.364-7.159H13.509V41.138H88.485v1.819Zm13.959-15v1.818H13.509V27.956Zm0,6.592v1.817H13.509V34.548Zm0-13.183v1.819H13.509V21.365Zm0-4.773H13.509V14.66H88.485Zm8.782,40.762H93.213V12.274A2.376,2.376,0,0,0,90.85,9.887h-79.7a2.376,2.376,0,0,0-2.364,2.387v45.08H4.729V4.773H97.267Z" fill="#d3ae29"/>
  </g>
</svg>
