<svg xmlns="http://www.w3.org/2000/svg" width="107.044" height="67.184" viewBox="0 0 107.044 67.184">
  <g id="house" transform="translate(0.044)">
    <g id="Group_1" data-name="Group 1">
      <path id="Path_1" data-name="Path 1" d="M104.631,20.3H57.45V12.431h1.138a2.373,2.373,0,0,0,2.371-2.374V2.374A2.374,2.374,0,0,0,58.588,0H2.327A2.373,2.373,0,0,0-.044,2.374v7.683a2.373,2.373,0,0,0,2.371,2.374H3.464V63.28a2.371,2.371,0,0,0,2.371,2.373H55.08a2.372,2.372,0,0,0,2.37-2.373V32.73h38.1V63.28a2.371,2.371,0,1,0,4.742,0V32.73h4.342A2.371,2.371,0,0,0,107,30.356V22.673A2.371,2.371,0,0,0,104.631,20.3Zm-2.372,7.682H57.45V25.046h44.809ZM4.7,7.683V4.748H56.219V7.683H4.7Zm3.509,4.748h44.5V60.907H38.73V44.232a2.371,2.371,0,0,0-2.37-2.373h-11.8a2.373,2.373,0,0,0-2.371,2.373V60.906H8.206ZM33.989,60.906H26.927v-14.3h7.062Z" fill="#d3ae29"/>
      <path id="Path_2" data-name="Path 2" d="M89.279,47.756V43.125a5.769,5.769,0,0,0-5.757-5.768H70.036a5.77,5.77,0,0,0-5.758,5.768v4.631a5.137,5.137,0,0,0-3.379,4.82V62a2.371,2.371,0,0,0,2.37,2.373h1.357v.436a2.371,2.371,0,1,0,4.742,0v-.436H84.19v.436a2.37,2.37,0,1,0,4.74,0v-.436h1.357A2.372,2.372,0,0,0,92.659,62V52.576A5.135,5.135,0,0,0,89.279,47.756ZM65.641,59.625V52.576a.386.386,0,0,1,.383-.387H87.536a.388.388,0,0,1,.385.387v7.049Zm4.4-17.52H83.522a1.02,1.02,0,0,1,1.017,1.02v4.316H69.019V43.125a1.02,1.02,0,0,1,1.017-1.02Z" fill="#d3ae29"/>
      <path id="Path_3" data-name="Path 3" d="M69.18,54.594a2.384,2.384,0,0,0-1.676.693,2.37,2.37,0,1,0,3.353,0A2.373,2.373,0,0,0,69.18,54.594Z" fill="#d3ae29"/>
      <path id="Path_4" data-name="Path 4" d="M84.376,54.594a2.368,2.368,0,1,0,1.675.693,2.387,2.387,0,0,0-1.675-.693Z" fill="#d3ae29"/>
      <path id="Path_5" data-name="Path 5" d="M18.938,19.362a2.372,2.372,0,0,0-2.371,2.374v5.007a2.371,2.371,0,1,0,4.741,0V21.736A2.371,2.371,0,0,0,18.938,19.362Z" fill="#d3ae29"/>
      <path id="Path_6" data-name="Path 6" d="M30.457,29.116a2.373,2.373,0,0,0,2.371-2.374V21.735a2.371,2.371,0,1,0-4.741,0v5.007A2.371,2.371,0,0,0,30.457,29.116Z" fill="#d3ae29"/>
      <path id="Path_7" data-name="Path 7" d="M41.977,29.116a2.373,2.373,0,0,0,2.371-2.374V21.735a2.371,2.371,0,1,0-4.742,0v5.007A2.372,2.372,0,0,0,41.977,29.116Z" fill="#d3ae29"/>
    </g>
  </g>
</svg>
