<svg xmlns="http://www.w3.org/2000/svg" width="512" height="478.371" viewBox="0 0 512 478.371">
  <g id="message" transform="translate(0 -16.814)">
    <g id="Group_2" data-name="Group 2">
      <g id="Group_1" data-name="Group 1">
        <path id="Path_1" data-name="Path 1" d="M511.609,197.6a7.557,7.557,0,0,0-.472-2.6,13.069,13.069,0,0,0-5.154-7.281l-73.292-50.948V82.153a13.114,13.114,0,0,0-13.112-13.112H335.26L263.517,19.163a13.1,13.1,0,0,0-14.935-.026l-72.206,49.9H92.426A13.113,13.113,0,0,0,79.314,82.153v53.973l-73.648,50.9a13.085,13.085,0,0,0-5.645,10.6c0,.077-.021.15-.021.23L.391,482.092A13.109,13.109,0,0,0,13.5,495.185h.018l485.385-.667A13.113,13.113,0,0,0,512,481.388ZM432.69,168.708l41.9,29.118-41.9,29.128ZM256.015,45.884l33.31,23.156H222.513ZM105.538,95.265H406.466V245.186L305.43,315.428l-41.194-31.954c-.064-.05-.119-.081-.181-.126a13.1,13.1,0,0,0-15.894.126l-41.493,32.185-101.13-69.893ZM79.314,168v59.64L36.168,197.824ZM26.258,222.867,184.927,332.522,26.578,455.346ZM51.875,468.909,256.2,310.425,459.79,468.348ZM327.144,332.271,485.42,222.235l.32,233.059Z" fill="#d3ae29"/>
      </g>
    </g>
    <g id="Group_4" data-name="Group 4">
      <g id="Group_3" data-name="Group 3">
        <path id="Path_2" data-name="Path 2" d="M344.77,147.713H167.234a13.112,13.112,0,0,0,0,26.224H344.77a13.112,13.112,0,0,0,0-26.224Z" fill="#d3ae29"/>
      </g>
    </g>
    <g id="Group_6" data-name="Group 6">
      <g id="Group_5" data-name="Group 5">
        <path id="Path_3" data-name="Path 3" d="M344.77,215.9H167.234a13.112,13.112,0,0,0,0,26.224H344.77a13.112,13.112,0,0,0,0-26.224Z" fill="#d3ae29"/>
      </g>
    </g>
  </g>
</svg>
