<svg xmlns="http://www.w3.org/2000/svg" width="55" height="64.963" viewBox="0 0 55 64.963">
  <g id="milestone_6" transform="translate(0 0)">
    <g id="Group_1" data-name="Group 1">
      <path id="Path_1" data-name="Path 1" d="M54.4,16.53,42.995,7.167a1.677,1.677,0,0,0-2.121,0L29.467,16.53a1.627,1.627,0,0,0-.6,1.255V63.329a1.647,1.647,0,0,0,1.657,1.634H53.342A1.646,1.646,0,0,0,55,63.329V17.785a1.617,1.617,0,0,0-.6-1.255ZM51.685,61.695h-19.5V18.551l9.75-8,9.749,8Z" fill="#d3ae29"/>
      <path id="Path_2" data-name="Path 2" d="M30.529,12.63a1.672,1.672,0,0,0,1.061-.378L41.936,3.76l10.346,8.492a1.673,1.673,0,0,0,2.334-.21,1.616,1.616,0,0,0-.213-2.3L42.995.378a1.675,1.675,0,0,0-2.121,0L29.467,9.741a1.618,1.618,0,0,0-.212,2.3,1.663,1.663,0,0,0,1.274.588Z" fill="#d3ae29"/>
      <path id="Path_3" data-name="Path 3" d="M25.532,35.319,14.125,25.956a1.678,1.678,0,0,0-2.122,0L.6,35.319A1.624,1.624,0,0,0,0,36.574V63.329a1.647,1.647,0,0,0,1.658,1.634H24.471a1.646,1.646,0,0,0,1.658-1.634V36.574a1.624,1.624,0,0,0-.6-1.255ZM22.813,61.695H3.315V37.34l9.749-8,9.75,8V61.695Z" fill="#d3ae29"/>
      <path id="Path_4" data-name="Path 4" d="M2.718,31.041l10.346-8.492,10.347,8.492a1.676,1.676,0,0,0,2.335-.21,1.618,1.618,0,0,0-.213-2.3L14.126,19.167a1.678,1.678,0,0,0-2.122,0L.6,28.53a1.617,1.617,0,0,0-.213,2.3,1.672,1.672,0,0,0,2.334.21Z" fill="#d3ae29"/>
      <path id="Path_5" data-name="Path 5" d="M11.407,38.833V50.946l-.756-.744a1.673,1.673,0,0,0-2.344,0,1.618,1.618,0,0,0,0,2.311l3.266,3.219a2.135,2.135,0,0,0,2.982,0l3.266-3.219a1.618,1.618,0,0,0,0-2.311,1.673,1.673,0,0,0-2.344,0l-.755.744V38.833a1.658,1.658,0,0,0-3.315,0Z" fill="#d3ae29"/>
      <path id="Path_6" data-name="Path 6" d="M40.444,34.81l-3.266,3.218a1.62,1.62,0,0,0,0,2.312,1.676,1.676,0,0,0,2.344,0l.755-.745V51.708a1.657,1.657,0,0,0,3.314,0V39.6l.756.744a1.677,1.677,0,0,0,2.345,0,1.62,1.62,0,0,0,0-2.311l-3.267-3.219a2.132,2.132,0,0,0-2.981,0Z" fill="#d3ae29"/>
    </g>
  </g>
</svg>
