<svg id="milestone_1" xmlns="http://www.w3.org/2000/svg" width="57.039" height="73" viewBox="0 0 57.039 73">
  <g id="Group_1" data-name="Group 1">
    <path id="Path_1" data-name="Path 1" d="M50.046,8.013H34.013v-6.4A1.622,1.622,0,0,0,32.385,0h-7.73a1.622,1.622,0,0,0-1.628,1.615v6.4H6.994A6.973,6.973,0,0,0,0,14.95V36.484a6.973,6.973,0,0,0,6.994,6.937H23.027V71.386A1.621,1.621,0,0,0,24.655,73h7.73a1.621,1.621,0,0,0,1.628-1.614V43.421H50.045a6.973,6.973,0,0,0,6.994-6.937V14.95A6.974,6.974,0,0,0,50.046,8.013Zm3.737,28.471a3.727,3.727,0,0,1-3.738,3.708H6.994a3.726,3.726,0,0,1-3.738-3.708V14.95a3.728,3.728,0,0,1,3.738-3.708H50.046a3.727,3.727,0,0,1,3.737,3.708V36.484ZM26.282,3.229h4.475V8.013H26.282Zm4.475,66.542H26.282V43.421h4.475Z" fill="#d3ae29"/>
    <path id="Path_2" data-name="Path 2" d="M7.421,12.971a1.637,1.637,0,0,0-2.3,0,1.6,1.6,0,0,0,0,2.283,1.634,1.634,0,0,0,2.3,0,1.6,1.6,0,0,0,0-2.283Z" fill="#d3ae29"/>
    <path id="Path_3" data-name="Path 3" d="M50.769,12.5a1.65,1.65,0,0,0-1.15.473,1.6,1.6,0,0,0,0,2.283,1.633,1.633,0,0,0,2.3,0,1.6,1.6,0,0,0,0-2.283,1.649,1.649,0,0,0-1.151-.473Z" fill="#d3ae29"/>
    <path id="Path_4" data-name="Path 4" d="M12.465,22.125h2.973a1.615,1.615,0,1,0,0-3.229H12.465a4.563,4.563,0,1,0,0,9.126,1.335,1.335,0,1,1,0,2.669H9.492a1.615,1.615,0,1,0,0,3.23h2.973a4.564,4.564,0,1,0,0-9.127,1.335,1.335,0,1,1,0-2.669Z" fill="#d3ae29"/>
    <path id="Path_5" data-name="Path 5" d="M23.525,18.9h-.714a4.231,4.231,0,0,0-4.244,4.209v6.606a4.232,4.232,0,0,0,4.244,4.21h.714a4.232,4.232,0,0,0,4.244-4.21V23.106A4.231,4.231,0,0,0,23.525,18.9Zm.989,10.815a.985.985,0,0,1-.989.98h-.714a.985.985,0,0,1-.989-.98V23.106a.985.985,0,0,1,.989-.98h.714a.985.985,0,0,1,.989.98Z" fill="#d3ae29"/>
    <path id="Path_6" data-name="Path 6" d="M43.6,18.9H41.6a1.622,1.622,0,0,0-1.629,1.614v11.8A1.622,1.622,0,0,0,41.6,33.922H43.6a5.562,5.562,0,0,0,5.579-5.534V24.43A5.562,5.562,0,0,0,43.6,18.9Zm2.324,9.491a2.317,2.317,0,0,1-2.324,2.3H43.23V22.125H43.6a2.317,2.317,0,0,1,2.324,2.305Z" fill="#d3ae29"/>
    <path id="Path_7" data-name="Path 7" d="M36.845,30.692H33.61a1.08,1.08,0,0,1-1.084-1.075V20.51a1.628,1.628,0,0,0-3.256,0v9.107a4.327,4.327,0,0,0,4.34,4.3h3.234a1.615,1.615,0,1,0,0-3.229Z" fill="#d3ae29"/>
  </g>
</svg>
