<svg xmlns="http://www.w3.org/2000/svg" width="67" height="48.883" viewBox="0 0 67 48.883">
  <g id="milestone_2" transform="translate(-0.083 -0.117)">
    <g id="Group_2" data-name="Group 2">
      <path id="Path_8" data-name="Path 8" d="M66.414,17.419,43.921.457a1.679,1.679,0,0,0-2.023,0L38.2,3.245,34.5.456a1.68,1.68,0,0,0-2.024,0l-3.6,2.719L25.269.456a1.679,1.679,0,0,0-2.023,0L.751,17.419A1.678,1.678,0,0,0,.083,18.76V47.318A1.681,1.681,0,0,0,1.763,49H65.4a1.682,1.682,0,0,0,1.681-1.682V18.76a1.677,1.677,0,0,0-.669-1.341Zm-2.691,28.22H57.665V18.76A1.679,1.679,0,0,0,57,17.419L40.991,5.35,42.909,3.9,63.722,19.6V45.639Zm-15.292,0V18.76a1.679,1.679,0,0,0-.669-1.341L31.665,5.28,33.491,3.9,54.305,19.6V45.639Zm-21.423,0H21.5V33.455h5.5V45.639Zm3.361,0V31.773a1.68,1.68,0,0,0-1.68-1.68H19.825a1.68,1.68,0,0,0-1.68,1.68V45.638H3.443V19.6L24.256,3.9,45.069,19.6V45.638h-14.7Z" fill="#d3ae29"/>
    </g>
  </g>
</svg>
