<svg id="milestone_3" xmlns="http://www.w3.org/2000/svg" width="76.003" height="47.628" viewBox="0 0 76.003 47.628">
  <g id="Group_1" data-name="Group 1">
    <path id="Path_1" data-name="Path 1" d="M74.316,14.389H40.82V8.812h.809a1.682,1.682,0,0,0,1.682-1.683V1.683A1.682,1.682,0,0,0,41.629,0H1.683A1.682,1.682,0,0,0,0,1.683V7.129A1.682,1.682,0,0,0,1.683,8.812h.809V44.858a1.682,1.682,0,0,0,1.683,1.683H39.138a1.683,1.683,0,0,0,1.684-1.683V23.2H67.871V44.859a1.683,1.683,0,1,0,3.366,0V23.2h3.082A1.683,1.683,0,0,0,76,21.518V16.072A1.688,1.688,0,0,0,74.316,14.389Zm-1.681,5.446H40.82v-2.08H72.634v2.08ZM3.366,5.446V3.366H39.945V5.447H3.366Zm2.49,3.366h31.6V43.176H27.528V31.356a1.683,1.683,0,0,0-1.683-1.683h-8.38a1.683,1.683,0,0,0-1.683,1.683V43.175H5.856ZM24.163,43.176H19.148V33.04h5.015Z" fill="#d3ae29"/>
    <path id="Path_2" data-name="Path 2" d="M63.419,33.854V30.572a4.093,4.093,0,0,0-4.088-4.089H49.756a4.094,4.094,0,0,0-4.089,4.089v3.282a3.642,3.642,0,0,0-2.4,3.417v6.681a1.683,1.683,0,0,0,1.684,1.683h.964v.31a1.684,1.684,0,0,0,3.367,0v-.31H59.806v.31a1.684,1.684,0,0,0,3.368,0v-.31h.964a1.682,1.682,0,0,0,1.683-1.683V37.271A3.649,3.649,0,0,0,63.419,33.854ZM46.634,42.268v-5A.274.274,0,0,1,46.907,37H62.18a.274.274,0,0,1,.272.273v5Zm3.122-12.419h9.575a.725.725,0,0,1,.723.723v3.061H49.034V30.572a.723.723,0,0,1,.722-.723Z" fill="#d3ae29"/>
    <path id="Path_3" data-name="Path 3" d="M49.148,38.7a1.681,1.681,0,1,0,1.19.492A1.687,1.687,0,0,0,49.148,38.7Z" fill="#d3ae29"/>
    <path id="Path_4" data-name="Path 4" d="M59.936,38.7a1.68,1.68,0,0,0-1.681,1.681,1.682,1.682,0,1,0,2.871-1.189,1.681,1.681,0,0,0-1.19-.492Z" fill="#d3ae29"/>
    <path id="Path_5" data-name="Path 5" d="M13.477,13.725a1.684,1.684,0,0,0-1.683,1.683v3.549a1.683,1.683,0,1,0,3.366,0V15.408A1.684,1.684,0,0,0,13.477,13.725Z" fill="#d3ae29"/>
    <path id="Path_6" data-name="Path 6" d="M21.655,20.641a1.683,1.683,0,0,0,1.684-1.684V15.408a1.684,1.684,0,0,0-3.367,0v3.549A1.684,1.684,0,0,0,21.655,20.641Z" fill="#d3ae29"/>
    <path id="Path_7" data-name="Path 7" d="M29.834,20.641a1.683,1.683,0,0,0,1.683-1.684V15.408a1.683,1.683,0,0,0-3.366,0v3.549A1.684,1.684,0,0,0,29.834,20.641Z" fill="#d3ae29"/>
  </g>
</svg>
