<svg xmlns="http://www.w3.org/2000/svg" width="58.007" height="54" viewBox="0 0 58.007 54">
  <g id="milestone_5" transform="translate(0 0)">
    <g id="Group_2" data-name="Group 2">
      <path id="Path_8" data-name="Path 8" d="M9.617,15.581H33.2a1.68,1.68,0,1,0,0-3.36H9.617a1.68,1.68,0,1,0,0,3.36Z" fill="#d3ae29"/>
      <path id="Path_9" data-name="Path 9" d="M9.617,21.352H33.2a1.68,1.68,0,1,0,0-3.359H9.617a1.68,1.68,0,1,0,0,3.359Z" fill="#d3ae29"/>
      <path id="Path_10" data-name="Path 10" d="M22.094,41.075H9.617a1.68,1.68,0,1,0,0,3.36H22.094a1.68,1.68,0,1,0,0-3.36Z" fill="#d3ae29"/>
      <path id="Path_11" data-name="Path 11" d="M57.187,3.2,52.215.24A1.7,1.7,0,0,0,49.9.816L41.243,15.145V4.989a1.686,1.686,0,0,0-1.69-1.68H1.691A1.687,1.687,0,0,0,0,4.989V52.32A1.685,1.685,0,0,0,1.691,54H39.552a1.685,1.685,0,0,0,1.69-1.68V32.868L57.766,5.507a1.675,1.675,0,0,0-.579-2.3ZM35.351,36.092l-2.805,2.314.733-3.549L49.5,8l2.072,1.234L35.351,36.092ZM53.31,6.355,51.239,5.121l.688-1.137L54,5.218ZM3.381,50.64V6.669H37.859V20.743l-2.985,4.944a1.641,1.641,0,0,0,.02-.245,1.684,1.684,0,0,0-1.689-1.679H9.617a1.679,1.679,0,1,0,0,3.358H33.2a1.688,1.688,0,0,0,1-.33l-1.655,2.742H9.617a1.68,1.68,0,1,0,0,3.36h20.9l-.291.482a1.649,1.649,0,0,0-.2.523l-.292,1.4H9.617a1.681,1.681,0,1,0,0,3.361H29.039l-.777,3.753a1.676,1.676,0,0,0,.786,1.779A1.707,1.707,0,0,0,31,44.046l6.732-5.553a1.522,1.522,0,0,0,.127-.127V50.64Z" fill="#d3ae29"/>
    </g>
  </g>
</svg>
