<svg xmlns="http://www.w3.org/2000/svg" width="59.807" height="78.001" viewBox="0 0 59.807 78.001">
  <g id="milestone_4" transform="translate(-0.112)">
    <g id="Group_1" data-name="Group 1">
      <path id="Path_1" data-name="Path 1" d="M52.586,8.563H35.775V1.726A1.716,1.716,0,0,0,34.068,0h-8.1a1.717,1.717,0,0,0-1.707,1.726V8.563H7.445A7.381,7.381,0,0,0,.112,15.975V38.983A7.382,7.382,0,0,0,7.445,46.4H24.256v29.88A1.716,1.716,0,0,0,25.963,78h8.1a1.715,1.715,0,0,0,1.706-1.725V46.4H52.586a7.382,7.382,0,0,0,7.333-7.412V15.974A7.381,7.381,0,0,0,52.586,8.563Zm3.919,30.42a3.945,3.945,0,0,1-3.919,3.961H7.445a3.944,3.944,0,0,1-3.919-3.961V15.974a3.943,3.943,0,0,1,3.919-3.961H52.586A3.944,3.944,0,0,1,56.5,15.974V38.983ZM27.669,3.451h4.692V8.563H27.669Zm4.692,71.1H27.669V46.4h4.692Z" fill="#d3ae29"/>
      <path id="Path_2" data-name="Path 2" d="M6.687,13.354a1.711,1.711,0,0,0-1.206.505,1.737,1.737,0,0,0,0,2.439,1.691,1.691,0,0,0,2.413,0,1.737,1.737,0,0,0,0-2.439A1.719,1.719,0,0,0,6.687,13.354Z" fill="#d3ae29"/>
      <path id="Path_3" data-name="Path 3" d="M53.345,13.354a1.717,1.717,0,0,0-1.208.505,1.737,1.737,0,0,0,0,2.439,1.693,1.693,0,0,0,2.414,0,1.737,1.737,0,0,0,0-2.439,1.708,1.708,0,0,0-1.206-.505Z" fill="#d3ae29"/>
      <path id="Path_4" data-name="Path 4" d="M14.247,20.191H10.552a1.716,1.716,0,0,0-1.706,1.725v12.6a1.707,1.707,0,1,0,3.413,0V32.262l3.3,3.456a1.695,1.695,0,0,0,2.414.043,1.738,1.738,0,0,0,.042-2.439l-3.258-3.413a4.28,4.28,0,0,0,3.738-4.258V24.483a4.276,4.276,0,0,0-4.248-4.292Zm.833,5.46a.838.838,0,0,1-.833.842H12.259V23.641h1.988a.839.839,0,0,1,.833.842Z" fill="#d3ae29"/>
      <path id="Path_5" data-name="Path 5" d="M23.76,23.641h4.25a1.726,1.726,0,0,0,0-3.451H23.76a3.715,3.715,0,0,0-3.692,3.731v8.591a3.717,3.717,0,0,0,3.692,3.732h4.25a1.725,1.725,0,0,0,0-3.45H23.76a.282.282,0,0,1-.279-.282v-2.57h4.528a1.725,1.725,0,0,0,0-3.45H23.481v-2.57A.281.281,0,0,1,23.76,23.641Z" fill="#d3ae29"/>
      <path id="Path_6" data-name="Path 6" d="M50.454,20.191H44.22a1.726,1.726,0,0,0,0,3.451h1.41V34.52a1.707,1.707,0,1,0,3.413,0V23.641h1.411a1.725,1.725,0,0,0,0-3.45Z" fill="#d3ae29"/>
      <path id="Path_7" data-name="Path 7" d="M39.231,20.191a1.716,1.716,0,0,0-1.707,1.725v5.3l-3-6.067a1.7,1.7,0,0,0-1.918-.907,1.719,1.719,0,0,0-1.315,1.678v12.6a1.707,1.707,0,1,0,3.413,0v-5.3l3,6.067a1.7,1.7,0,0,0,1.919.908,1.723,1.723,0,0,0,1.314-1.68v-12.6a1.715,1.715,0,0,0-1.707-1.725Z" fill="#d3ae29"/>
    </g>
  </g>
</svg>
