<svg xmlns="http://www.w3.org/2000/svg" width="511.997" height="512" viewBox="0 0 511.997 512">
  <g id="phone-call" transform="translate(-0.002)">
    <g id="Group_3" data-name="Group 3">
      <g id="Group_2" data-name="Group 2">
        <path id="Path_7" data-name="Path 7" d="M492.557,400.56,392.234,300.238a30.748,30.748,0,0,0-43.435,0l-26.088,26.088a30.73,30.73,0,0,0-7.773,30.241L305.1,366.41l-.008.008c-6.99,7-50.523-3.741-103.145-56.363s-63.356-96.139-56.366-103.142a0,0,0,0,1,0,0l9.852-9.851a30.738,30.738,0,0,0,30.241-7.773L211.759,163.2a30.747,30.747,0,0,0,0-43.434L111.436,19.441a30.714,30.714,0,0,0-43.432,0l-26.09,26.09a30.73,30.73,0,0,0-7.773,30.241S25.8,84.2,25.382,84.728c-27.753,30.849-32.96,79.418-14.561,137.487C28.838,279.072,67.678,339.3,120.188,391.81s112.739,91.348,169.6,109.367c22.84,7.237,44.207,10.823,63.61,10.823,31.813,0,58.337-9.648,77.35-28.66l5.474-5.474a30.83,30.83,0,0,0,8.532,1.213,30.514,30.514,0,0,0,21.716-8.994L492.556,444A30.749,30.749,0,0,0,492.557,400.56ZM89.72,41.157,190.044,141.482l-26.074,26.1-.014-.014-.375-.375-49.787-49.787L63.631,67.247ZM409.029,461.623l-.005.005c-22.094,22.091-61.146,25.74-109.961,10.27C246.811,455.34,191,419.184,141.907,370.092S56.658,265.189,40.1,212.936c-15.47-48.817-11.821-87.87,10.275-109.967l0,0,2.77-2.77,77.857,77.856-7.141,7.141-.015.017c-29.585,29.622,5.963,96.147,56.378,146.562,37.734,37.734,84.493,67.14,118.051,67.14,11.284,0,21.076-3.325,28.528-10.778l.008-.008,7.133-7.133L411.8,458.85Zm35.723-13.255L344.428,348.044l26.088-26.088L470.84,422.278S444.761,448.377,444.752,448.368Z" fill="#d3ae29"/>
      </g>
    </g>
    <g id="Group_5" data-name="Group 5">
      <g id="Group_4" data-name="Group 4">
        <path id="Path_8" data-name="Path 8" d="M388.818,123.184A153.62,153.62,0,0,0,279.474,77.891a15.356,15.356,0,0,0,0,30.712A123.921,123.921,0,0,1,403.4,232.524a15.356,15.356,0,1,0,30.712,0A153.63,153.63,0,0,0,388.818,123.184Z" fill="#d3ae29"/>
      </g>
    </g>
    <g id="Group_7" data-name="Group 7">
      <g id="Group_6" data-name="Group 6">
        <path id="Path_9" data-name="Path 9" d="M443.895,68.107A231.009,231.009,0,0,0,279.468,0a15.356,15.356,0,0,0,0,30.712A201.816,201.816,0,0,1,481.287,232.529a15.356,15.356,0,0,0,30.712,0A231,231,0,0,0,443.895,68.107Z" fill="#d3ae29"/>
      </g>
    </g>
    <g id="Group_9" data-name="Group 9">
      <g id="Group_8" data-name="Group 8">
        <path id="Path_10" data-name="Path 10" d="M333.737,178.26a75.22,75.22,0,0,0-54.256-22.477h-.006a15.356,15.356,0,1,0,0,30.712h.005a44.536,44.536,0,0,1,32.539,13.481A45.117,45.117,0,0,1,325.5,232.52a15.357,15.357,0,0,0,15.354,15.358h0a15.357,15.357,0,0,0,15.356-15.354A75.231,75.231,0,0,0,333.737,178.26Z" fill="#d3ae29"/>
      </g>
    </g>
  </g>
</svg>
