<svg xmlns="http://www.w3.org/2000/svg" width="384.051" height="512" viewBox="0 0 384.051 512">
  <g id="placeholder" transform="translate(-63.974 0)">
    <g id="Group_11" data-name="Group 11">
      <g id="Group_10" data-name="Group 10">
        <path id="Path_11" data-name="Path 11" d="M446.812,493.966l-67.5-142.781a12.633,12.633,0,0,0-6.48-6.223l-33.58-14.949,58.185-97.518c.139-.234.27-.471.395-.713a159.365,159.365,0,0,0-30-185.917A159.292,159.292,0,0,0,114.165,231.781q.186.361.394.713l58.184,97.517-33.774,15.031a12.626,12.626,0,0,0-6.285,6.142l-67.5,142.782a12.634,12.634,0,0,0,16.56,16.941L166.3,473.261l84.558,37.646a12.644,12.644,0,0,0,10.277,0L345.7,473.261l84.558,37.646a12.631,12.631,0,0,0,16.556-16.941ZM136.473,219.906A132.506,132.506,0,0,1,122,158.453C122.431,86.024,181.689,26.283,254.1,25.28A134.052,134.052,0,0,1,375.528,219.906L266.85,402.054a12.634,12.634,0,0,1-21.7,0ZM350.834,447.891a12.644,12.644,0,0,0-10.277,0L256,485.537l-84.558-37.646a12.644,12.644,0,0,0-10.277,0l-58.578,26.08,50.938-107.749,32.258-14.356L223.45,415a37.9,37.9,0,0,0,65.094,0l37.668-63.133,32.261,14.361,50.935,107.744Z" fill="#d3ae29"/>
      </g>
    </g>
    <g id="Group_13" data-name="Group 13">
      <g id="Group_12" data-name="Group 12">
        <path id="Path_12" data-name="Path 12" d="M256,101.607a57.658,57.658,0,1,0,57.658,57.658A57.723,57.723,0,0,0,256,101.607Zm0,90.05A32.392,32.392,0,1,1,288.4,159.265,32.428,32.428,0,0,1,256,191.657Z" fill="#d3ae29"/>
      </g>
    </g>
  </g>
</svg>
